<?xml version="1.0" encoding="UTF-8" standalone="no"?>
<!-- Created with Inkscape (http://www.inkscape.org/) -->

<svg
   xmlns:dc="http://purl.org/dc/elements/1.1/"
   xmlns:cc="http://creativecommons.org/ns#"
   xmlns:rdf="http://www.w3.org/1999/02/22-rdf-syntax-ns#"
   xmlns:svg="http://www.w3.org/2000/svg"
   xmlns="http://www.w3.org/2000/svg"
   xmlns:sodipodi="http://sodipodi.sourceforge.net/DTD/sodipodi-0.dtd"
   xmlns:inkscape="http://www.inkscape.org/namespaces/inkscape"
   width="588.68274mm"
   height="407.59857mm"
   viewBox="0 0 588.68273 407.59856"
   version="1.1"
   id="svg8"
   inkscape:version="0.92.5 (2060ec1f9f, 2020-04-08)"
   sodipodi:docname="K0SWE logo.svg"
   inkscape:export-filename="/home/chris/Downloads/K0SWE logo.png"
   inkscape:export-xdpi="22.09"
   inkscape:export-ydpi="22.09">
  <defs
     id="defs2" />
  <sodipodi:namedview
     id="base"
     pagecolor="#ffffff"
     bordercolor="#666666"
     borderopacity="1.0"
     inkscape:pageopacity="0.0"
     inkscape:pageshadow="2"
     inkscape:zoom="0.49497475"
     inkscape:cx="305.70087"
     inkscape:cy="341.31754"
     inkscape:document-units="mm"
     inkscape:current-layer="layer2"
     showgrid="false"
     inkscape:window-width="3840"
     inkscape:window-height="2032"
     inkscape:window-x="0"
     inkscape:window-y="54"
     inkscape:window-maximized="1"
     fit-margin-top="1"
     fit-margin-left="1"
     fit-margin-right="1"
     fit-margin-bottom="1"
     units="mm"
     inkscape:pagecheckerboard="true" />
  <metadata
     id="metadata5">
    <rdf:RDF>
      <cc:Work
         rdf:about="">
        <dc:format>image/svg+xml</dc:format>
        <dc:type
           rdf:resource="http://purl.org/dc/dcmitype/StillImage" />
        <dc:title></dc:title>
      </cc:Work>
    </rdf:RDF>
  </metadata>
  <g
     inkscape:label="Layer 1"
     inkscape:groupmode="layer"
     id="layer1"
     sodipodi:insensitive="true"
     style="display:inline"
     transform="translate(189.34139,55.29928)">
    <path
       style="fill:#ffffff;fill-opacity:1;stroke-width:0.26458335"
       d="M 94.343783,351.25042 C 61.226313,350.14385 33.670247,346.42225 4.6500367,339.13676 -69.222896,320.59106 -129.64643,281.84955 -162.3207,232.08084 c -7.91985,-12.06333 -14.63279,-25.91081 -18.8636,-38.91187 -9.54277,-29.32441 -9.54277,-60.06852 0,-89.39293 3.1646,-9.724647 7.74509,-21.610047 13.99809,-31.106667 15.32825,-23.27944 33.2733,-46.22746 56.48896,-61.65215 52.507354,-34.88633 109.82529675,-57.70888 178.053533,-63.74668 13.9183,-1.23169 21.98201,-1.56743 37.703127,-1.5698 14.14335,-0.002 20.68819,0.23149 32.94062,1.17587 97.35173,7.50361 182.98378,48.3736697 228.08519,108.85942 16.84488,22.59075 27.29116,47.048327 30.92444,72.402497 1.12216,7.8307 1.33171,11.03045 1.33171,20.33397 0,9.30353 -0.20955,12.50328 -1.33171,20.33398 -11.64198,81.24118 -93.30957,149.94924 -206.62212,173.834 -20.42335,4.30496 -42.37967,7.09607 -64.82292,8.24034 -5.44365,0.27755 -26.511487,0.52695 -31.220837,0.3696 z"
       id="path75"
       inkscape:connector-curvature="0"
       sodipodi:nodetypes="cssssaascsscscssc" />
  </g>
  <g
     inkscape:groupmode="layer"
     id="layer2"
     inkscape:label="Layer 2"
     style="display:inline"
     transform="translate(189.34139,55.29928)">
    <path
       style="fill:#034e35;fill-opacity:1;stroke-width:0.26458338"
       d="M 94.343789,351.25043 C 61.226319,350.14386 33.670244,346.42226 4.6500338,339.13677 -69.222906,320.59107 -129.64644,281.84956 -162.32071,232.08085 c -7.91985,-12.06333 -14.63279,-25.91082 -18.8636,-38.91188 -9.54277,-29.32441 -9.54277,-60.06852 0,-89.39293 3.1646,-9.724647 7.74509,-21.610047 13.99809,-31.106667 15.32825,-23.27944 33.2733,-46.227461 56.48896,-61.652148 52.507354,-34.886332 109.82530375,-57.708892 178.053549,-63.746692 13.9183,-1.23169 21.98201,-1.56743 37.703131,-1.5698 14.14335,-0.002 20.68819,0.23149 32.94062,1.17587 97.35172,7.50361 182.98376,48.3736727 228.08519,108.85943 16.84489,22.59075 27.29116,47.048327 30.92442,72.402497 1.12218,7.8307 1.33173,11.03045 1.33173,20.33397 0,9.30353 -0.20955,12.50328 -1.33173,20.33398 -11.64195,81.24119 -93.30957,149.94925 -206.62211,173.83401 -20.42334,4.30496 -42.37966,7.09607 -64.82291,8.24034 -5.44365,0.27755 -26.511491,0.52695 -31.220841,0.3696 z m 33.342261,-21.39762 c 35.71897,-1.96525 68.67332,-8.2001 101.19837,-19.14642 29.79302,-10.02686 57.21891,-24.17291 80.03645,-41.28222 35.43659,-26.57139 58.57203,-59.8421 65.98377,-94.89021 4.06009,-19.19886 3.45096,-40.4567 -1.69442,-59.13437 C 366.71015,91.804383 353.35528,69.417843 333.76275,49.274483 307.70182,22.480878 270.9658,0.40112567 228.88442,-13.761377 c -33.21688,-11.17915 -65.85228,-17.2556 -103.71667,-19.3112 -7.68292,-0.41709 -32.534121,-0.41708 -40.216671,2e-5 -37.967675,2.06136 -70.533005,8.14346 -104.113545,19.4449 -46.18826,15.5445327 -86.027904,40.898474 -112.337614,71.49165 -13.35177,15.52558 -23.98756,33.84693 -29.56031,50.921007 -9.36206,28.68397 -8.4499,58.54897 2.64657,86.65105 2.11372,5.35305 6.99199,15.16865 10.19089,20.50519 6.89322,11.49961 14.99684,21.90435 25.2115,32.37069 25.509704,26.13826 62.613154,48.38295 103.848964,62.26074 36.49387,12.28191 72.294965,18.51306 113.638545,19.77869 5.791021,0.17727 26.605821,-0.1352 33.209971,-0.49855 z M 99.238579,317.6222 c -38.04729,-0.4219 -76.587555,-6.72912 -111.521875,-18.25087 -50.0206,-16.49736 -91.431894,-43.87803 -115.967514,-76.67636 -13.23181,-17.68783 -21.6098,-36.3211 -24.77719,-55.10633 -2.09471,-12.42334 -2.09471,-25.80893 0,-38.23227 5.23443,-31.044487 24.65064,-61.447137 55.151994,-86.359084 14.20767,-11.604099 32.93758,-23.2204 51.38288,-31.8677 38.4667998,-18.0335433 84.10013,-28.948883 131.047335,-31.346093 10.17998,-0.51981 30.933891,-0.51544 41.142711,0.009 46.50017,2.38723 91.31001,13.0174897 129.64582,30.755921 26.90402,12.44882 50.13587,28.334891 68.369,46.751069 12.3132,12.43688 21.74644,25.52946 28.99375,40.24106 6.26946,12.726557 10.09446,25.779867 11.55205,39.422927 0.5769,5.39955 0.5769,17.61917 0,23.01875 -1.45759,13.64303 -5.28259,26.69637 -11.55205,39.42292 -7.24731,14.71161 -16.68055,27.8042 -28.99375,40.24105 -11.55039,11.66632 -22.92697,20.65348 -39.39712,31.12243 -16.43285,10.44522 -38.18715,20.61501 -59.39895,27.76805 -39.49036,13.31698 -80.75766,19.58398 -125.677091,19.08585 z m -8.73283,-14.59518 c -0.003,-0.83346 -5.52622,-17.58389 -5.86984,-17.80177 -0.19047,-0.12084 -1.60885,-0.22146 -3.15198,-0.22371 l -2.80567,-0.004 -3.7688,8.62581 c -2.1091,4.82717 -3.66842,8.72623 -3.54084,8.85381 0.12539,0.12539 1.38118,0.30903 2.79067,0.40812 l 2.56267,0.18013 0.66141,-1.49553 0.6614,-1.49553 2.72555,0.15666 c 1.49905,0.0862 2.86031,0.19711 3.02504,0.24651 0.1647,0.0494 0.44463,0.69503 0.62209,1.43473 0.36988,1.5418 0.42735,1.56969 3.44405,1.67148 2.35043,0.0793 2.64634,0.0169 2.64425,-0.55669 z M 79.666559,295.647 c 0.0109,-0.70025 1.47355,-4.66077 1.75617,-4.75496 0.19987,-0.0666 1.4314,4.29916 1.41595,5.01954 -0.003,0.10914 -0.71864,0.19844 -1.59176,0.19844 -1.33824,0 -1.58639,-0.0727 -1.58036,-0.46302 z m 23.268071,7.85423 c 0.94144,-0.15274 2.12693,-0.47477 2.63448,-0.71559 1.40647,-0.66744 2.84419,-2.31632 3.47348,-3.9837 0.4912,-1.30143 0.55187,-1.9064 0.45569,-4.54401 -0.0961,-2.63607 -0.20778,-3.24508 -0.83558,-4.55705 -0.41026,-0.85733 -1.20256,-1.92341 -1.82613,-2.45716 -1.74855,-1.49669 -3.0426,-1.74003 -8.810811,-1.6569 l -5.00488,0.0722 -0.0699,8.72924 c -0.0384,4.8011 -0.0124,8.879 0.0578,9.06198 0.16219,0.42262 7.405981,0.45987 9.925771,0.051 z m -4.165181,-8.91257 0.0723,-4.69635 1.390231,0.0365 c 2.61985,0.0688 3.55375,1.30601 3.54428,4.69553 -0.0101,3.60135 -0.81034,4.66071 -3.52108,4.66071 h -1.557921 z m 19.765881,8.49699 c 0.24067,-0.22055 -0.557,-17.42752 -0.82274,-17.74769 -0.20175,-0.24308 -0.91517,-0.28792 -2.69349,-0.16934 -1.33048,0.0887 -2.5156,0.24855 -2.63361,0.35518 -0.28212,0.25493 0.31827,16.62041 0.63921,17.42353 0.24357,0.60954 0.28935,0.61656 2.82189,0.4314 1.41586,-0.10353 2.6258,-0.2354 2.68874,-0.29308 z m -48.194111,-0.69178 c 0.37536,-0.45709 -1.73765,-5.72973 -2.85181,-7.11618 -0.46623,-0.58015 -0.80598,-1.08527 -0.75499,-1.12249 0.051,-0.0372 0.66897,-0.39783 1.37329,-0.80132 2.31465,-1.32609 3.19651,-4.41293 1.94072,-6.79339 -0.74811,-1.41811 -2.06021,-2.21673 -4.26524,-2.59593 -2.45065,-0.42148 -10.72615,-1.17581 -10.90772,-0.9942 -0.25034,0.25035 -1.93044,17.48208 -1.72481,17.69033 0.31528,0.31935 5.11763,0.80672 5.37849,0.54584 0.1328,-0.1328 0.37715,-1.62645 0.54301,-3.31923 0.35502,-3.62381 0.44588,-3.84992 1.3765,-3.4259 0.72911,0.33221 1.43459,1.60094 2.79455,5.02573 0.47752,1.20259 1.00301,2.27352 1.16774,2.37985 0.16473,0.10634 1.4306,0.32864 2.81305,0.494 1.38245,0.16537 2.58826,0.31483 2.6796,0.33211 0.0913,0.0172 0.28823,-0.11732 0.43762,-0.29922 z m -9.94,-11.85196 c -0.55891,-0.22436 -0.59127,-0.34925 -0.42402,-1.63687 0.0996,-0.76668 0.28659,-1.46301 0.41555,-1.54741 0.12899,-0.0844 0.97465,-0.0546 1.87926,0.0661 2.43176,0.32462 3.2182,1.44828 1.92132,2.74516 -0.51591,0.51588 -0.9103,0.64598 -1.91823,0.63264 -0.69784,-0.009 -1.54109,-0.12607 -1.87388,-0.25966 z m 74.492881,11.55071 c 3.84559,-1.38123 5.87962,-4.74467 5.53167,-9.14702 -0.47644,-6.02771 -3.46189,-9.00642 -9.02676,-9.00642 -4.36955,0 -7.20961,1.54493 -8.94157,4.86397 -0.80489,1.5425 -0.98301,5.86957 -0.3243,7.8785 1.00991,3.07991 3.01209,5.04738 5.87478,5.77281 1.37171,0.34764 5.51738,0.12978 6.88618,-0.36184 z m -5.66103,-4.35798 c -1.14498,-0.71988 -1.80803,-2.54937 -1.78588,-4.9276 0.0284,-3.05239 1.12133,-4.36994 3.62487,-4.36994 2.16257,0 3.30978,1.49387 3.54603,4.61748 0.25489,3.37013 -0.70515,4.91699 -3.16445,5.09876 -1.056,0.078 -1.59091,-0.0228 -2.22057,-0.4187 z m -87.409076,0.97409 c 0,-0.83836 -1.92103,-6.29465 -2.52909,-7.18336 -0.38112,-0.557 -0.6526,-1.03563 -0.60329,-1.0636 0.0493,-0.028 0.64372,-0.30924 1.32088,-0.62502 1.49153,-0.69559 2.45813,-1.89868 2.88276,-3.58807 0.66194,-2.63353 -0.86212,-5.00901 -3.76711,-5.87171 -2.04863,-0.60839 -9.9633,-2.03542 -10.7697,-1.94181 -0.6413,0.0745 -0.721,0.23776 -1.13671,2.32902 -1.4479,7.2839 -2.74994,14.83162 -2.60032,15.07371 0.25088,0.40593 4.98765,1.21582 5.29768,0.90578 0.13783,-0.13782 0.50623,-1.61671 0.81868,-3.28639 0.31244,-1.66971 0.66049,-3.13693 0.77343,-3.26054 0.3664,-0.40095 1.31222,0.10956 1.74169,0.94006 0.23042,0.44559 0.82389,2.089 1.31884,3.65205 0.49494,1.56305 1.06378,2.97791 1.26407,3.14415 0.42257,0.3507 3.547,1.01145 4.996,1.05656 0.6025,0.0188 0.99219,-0.0915 0.99219,-0.28083 z m -8.41395,-12.12011 c -0.48033,-0.1138 -0.93903,-0.27255 -1.01934,-0.35288 -0.29734,-0.29731 0.23067,-2.86451 0.61987,-3.01387 0.56524,-0.2169 3.18635,0.41971 3.65414,0.88749 0.21823,0.21823 0.39678,0.73872 0.39678,1.15663 0,1.36086 -1.37976,1.86063 -3.65145,1.32263 z m 131.502806,11.44465 c 3.36008,-1.57765 4.73448,-3.55724 4.91506,-7.07935 0.25032,-4.88238 -1.85571,-8.85232 -5.39951,-10.17823 -3.31007,-1.23846 -8.13141,-0.3584 -10.9279,1.9947 -4.07985,3.43294 -2.8924,12.77996 1.93699,15.24719 1.7794,0.90909 2.28451,0.99751 5.10974,0.89461 2.31957,-0.0845 2.93944,-0.20928 4.36562,-0.87892 z m -6.35818,-4.17123 c -0.98665,-0.83021 -1.57003,-2.26997 -1.79009,-4.41796 -0.21309,-2.08002 0.27361,-3.41146 1.52631,-4.17521 1.79702,-1.09561 3.92096,-0.50601 4.98273,1.38317 0.80569,1.43351 1.04749,5.01348 0.42053,6.22588 -0.88265,1.70683 -3.65066,2.23687 -5.13948,0.98412 z m 19.04569,1.8416 c 1.06249,-0.22349 2.04536,-0.51993 2.18416,-0.65873 0.1601,-0.1601 0.009,-1.31432 -0.41399,-3.15706 -0.36647,-1.59758 -0.59743,-3.004 -0.51321,-3.12539 0.0842,-0.12139 1.16517,-0.48496 2.4021,-0.80791 2.31269,-0.60388 3.93433,-1.51645 4.82171,-2.71351 1.73035,-2.33421 0.70959,-6.75881 -1.91495,-8.30064 -1.35239,-0.79444 -3.77245,-0.63984 -8.99218,0.57449 -3.81524,0.88757 -4.3756,1.08455 -4.44481,1.56236 -0.0631,0.43596 3.00209,14.75225 3.54771,16.56975 0.1719,0.57261 0.81828,0.58364 3.32346,0.0566 z m -0.0153,-11.94517 c -0.66276,-2.52674 -0.66577,-2.43755 0.0922,-2.72573 0.38849,-0.14772 1.15642,-0.26856 1.70646,-0.26856 1.27915,0 1.94461,0.68451 1.82832,1.88061 -0.0927,0.95303 -0.95731,1.622 -2.51716,1.94736 -0.80473,0.16788 -0.85752,0.12822 -1.10982,-0.83368 z m -160.304756,9.65576 c 1.27932,-0.3833 3.41896,-2.25338 4.01479,-3.50901 0.74313,-1.56604 3.40178,-12.08667 3.12447,-12.36398 -0.29796,-0.29794 -3.90508,-1.26394 -4.74406,-1.27045 -0.45504,-0.003 -0.64283,0.21603 -0.84477,0.98764 -0.14281,0.54573 -0.74899,2.89721 -1.34706,5.22552 -1.29599,5.04545 -1.49469,5.59271 -2.21319,6.09597 -1.14962,0.80524 -3.76388,0.25683 -4.39474,-0.92191 -0.47011,-0.87847 -0.3104,-1.9993 1.06733,-7.49009 1.17374,-4.67778 1.29004,-5.3757 0.93858,-5.63269 -0.69341,-0.50702 -4.6423402,-1.30246 -4.9481002,-0.99671 -0.15006,0.1501 -0.92921,2.81948 -1.73144,5.93206 -1.21225,4.70337 -1.43219,5.89714 -1.30222,7.06782 0.31785,2.86271 1.5328,4.55462 4.097,5.70537 3.1137202,1.39734 6.1120302,1.82102 8.2834102,1.17046 z m 182.975366,-3.40754 c 3.59492,-1.02849 6.68075,-2.01075 6.85742,-2.18281 0.25161,-0.24506 0.23106,-0.62797 -0.095,-1.76803 -0.67022,-2.34384 -0.48704,-2.31264 -5.37009,-0.91429 -2.36593,0.67754 -4.4019,1.13067 -4.52437,1.00695 -0.31007,-0.31319 -0.92112,-2.68841 -0.73859,-2.87094 0.0822,-0.0822 1.76848,-0.61212 3.74722,-1.17761 1.97879,-0.56552 3.72115,-1.1044 3.87194,-1.19758 0.36851,-0.22778 0.3466,-0.59177 -0.13301,-2.20684 -0.28641,-0.96438 -0.54139,-1.36922 -0.85992,-1.36512 -0.249,0.003 -2.05359,0.4721 -4.01013,1.04201 -1.95657,0.56994 -3.64453,0.98237 -3.751,0.91654 -0.37867,-0.23402 -0.82428,-2.00734 -0.56872,-2.26295 0.13742,-0.13737 1.97085,-0.72909 4.07429,-1.31485 2.10344,-0.58578 3.98801,-1.16617 4.18793,-1.28974 0.30562,-0.18888 0.29443,-0.46743 -0.0704,-1.74979 -0.2386,-0.83878 -0.55488,-1.64613 -0.70284,-1.79409 -0.33517,-0.33517 -14.03342,3.49787 -14.21783,3.97841 -0.0684,0.17817 0.66556,3.09851 1.63094,6.48954 2.97897,10.4638 3.00202,10.53118 3.60302,10.53118 0.29308,0 3.47416,-0.84148 7.06908,-1.86999 z M 0.52482375,287.85655 c 0.3044,-0.90138 0.55346005,-1.78922 0.55346005,-1.973 0,-0.19912 -1.70649005,-0.87659 -4.22264,-1.6764 -2.32245,-0.73821 -4.29983,-1.46711 -4.39416,-1.61975 -0.24556,-0.39732 0.43064,-2.63969 0.84384,-2.79823 0.19077,-0.0732 2.01473,0.42275 4.05325,1.10212 2.03852995,0.6794 3.81732,1.16671 3.95287,1.08294 0.2946,-0.18206 1.08975,-2.4348 1.08975,-3.08732 0,-0.35729 -0.84258,-0.73845 -3.77031,-1.70566 -2.07368,-0.68506 -3.86117,-1.32752 -3.97223,-1.42772 -0.19671,-0.17743 0.2329,-1.80443 0.58025,-2.19752 0.0956,-0.10819 1.98764,0.40931 4.20452995,1.14998 2.21691005,0.74068 4.19777005,1.2826 4.40193005,1.20425 0.4372,-0.16777 1.34336,-2.86186 1.14044,-3.39063 -0.15558,-0.40545 -13.56996,-4.82981 -13.94357,-4.59891 -0.31892,0.19709 -5.6300498,16.51294 -5.5011498,16.8996 0.10883,0.32652 12.8862898,4.61687 13.85924975,4.6536 0.46999,0.0177 0.66897,-0.26845 1.12449,-1.61735 z M 216.01851,284.99352 c 0.12962,-0.12327 -0.26003,-1.61176 -0.8885,-3.39405 -0.61566,-1.74598 -1.03994,-3.303 -0.94284,-3.46011 0.26271,-0.42508 1.26222,-0.34563 2.00464,0.15936 0.35981,0.24471 1.68188,1.3758 2.93794,2.51354 1.25605,1.13773 2.50621,2.06216 2.77812,2.0543 0.95136,-0.0275 5.25695,-1.76215 5.33318,-2.14868 0.0977,-0.49559 -4.54297,-4.66243 -5.76485,-5.1762 -0.50932,-0.21418 -0.96258,-0.42331 -1.00721,-0.46477 -0.0447,-0.0415 0.29937,-0.61536 0.76454,-1.27526 1.21118,-1.71831 1.33612,-3.39977 0.39544,-5.32244 -1.18946,-2.43115 -3.02709,-3.17259 -5.99358,-2.41832 -2.3622,0.60063 -10.098,3.32158 -10.48281,3.68713 -0.24326,0.23114 0.34676,2.1509 2.55521,8.31374 1.57935,4.40724 3.01075,8.18089 3.18087,8.38591 0.26247,0.31623 0.65725,0.25091 2.60419,-0.4309 1.26214,-0.44201 2.39869,-0.90246 2.52566,-1.02325 z m -3.9053,-11.89106 c -0.25943,-0.72141 -0.40185,-1.42465 -0.31652,-1.56271 0.21658,-0.35047 2.48401,-1.09432 3.33565,-1.09432 0.82352,0 1.58136,0.72986 1.58136,1.523 0,0.62325 -1.00758,1.51302 -2.34741,2.0729 -1.462,0.61095 -1.73696,0.49639 -2.25308,-0.93887 z m -234.208266,7.06641 c 0.33559,-0.76398 1.40429,-3.35359 2.37487,-5.75469 0.97059,-2.40109 1.86335,-4.52416 1.98392,-4.71794 0.17389,-0.27948 0.69958,-0.15351 2.54244,0.60939 1.27779,0.52893 2.46842,0.90599 2.64586,0.83791 0.17743,-0.0681 0.64393,-0.92644 1.03664,-1.90744 0.58622,-1.46433 0.65208,-1.84335 0.3679,-2.11714 -0.43062,-0.41487 -14.50297,-6.19853 -15.08178,-6.19853 -0.40628,0 -1.80081,2.95508 -1.80081,3.81596 0,0.21743 0.9849,0.77904 2.38125,1.35781 1.30969,0.54285 2.38125,1.12776 2.38125,1.29977 0,0.172 -1.055,2.92325 -2.34445,6.11386 -1.28945,3.19064 -2.29543,5.93254 -2.23551,6.09314 0.11916,0.31943 3.89141,1.87926 4.66066,1.9272 0.33432,0.0209 0.66062,-0.38693 1.08776,-1.3593 z m 253.534996,-0.78229 1.81009,-0.87138 v -1.58123 -1.58126 l 2.74555,-1.1938 2.74559,-1.19377 1.01189,1.17491 1.01193,1.17494 2.52637,-1.02103 c 1.72599,-0.69755 2.52349,-1.15459 2.51728,-1.44259 -0.009,-0.40383 -12.06021,-13.15006 -12.86637,-13.60805 -0.44673,-0.25384 -4.71715,1.45592 -5.41047,2.16617 -0.39238,0.40198 -0.38838,1.17901 0.05,9.6974 0.26212,5.09323 0.48384,9.30508 0.49271,9.35964 0.0408,0.25085 1.72069,-0.28821 3.36542,-1.07995 z m 1.28587,-8.66857 c -0.14174,-0.22932 -0.65934,-4.11266 -0.66439,-4.98454 -0.003,-0.52308 0.381,-0.19161 2.12354,1.83306 0.87556,1.01727 1.52445,1.95874 1.44201,2.09214 -0.1234,0.19968 -2.37937,1.31593 -2.65954,1.31593 -0.0457,0 -0.15441,-0.11546 -0.24162,-0.25659 z m -265.246926,6.80503 c 0.002,-0.0364 0.40939,-4.22931 0.90631,-9.31762 0.49691,-5.08828 0.84371,-9.34818 0.77067,-9.46637 -0.2583,-0.41791 -4.91124,-2.61022 -5.36991,-2.53013 -0.54951,0.096 -13.60166,12.26312 -13.72348,12.79295 -0.0523,0.22754 0.81078,0.81169 2.31707,1.56818 l 2.40043,1.20558 1.1667,-1.0754 1.16669,-1.07543 2.6637,1.33673 2.66373,1.3367 -0.1637,1.5661 -0.16369,1.56604 2.08602,1.06619 c 1.70593,0.87191 3.26525,1.35996 3.27946,1.02648 z m -6.02209,-10.32113 c -0.61847,-0.3107 -1.12448,-0.71898 -1.12448,-0.90723 0,-0.47014 3.34664,-3.96391 3.57773,-3.73502 0.10218,0.1012 0.0504,0.99417 -0.11498,1.98435 -0.62447,3.73824 -0.49058,3.58603 -2.33827,2.6579 z m 291.775146,2.18223 c 1.16093,-0.5837 2.11079,-1.18007 2.11079,-1.32522 0,-0.14515 -1.3049,-2.87166 -2.89978,-6.05888 -2.16929,-4.33517 -2.81913,-5.85986 -2.57968,-6.0525 0.17605,-0.14166 1.18863,-0.69223 2.25019,-1.22354 1.06156,-0.53126 1.99422,-1.133 2.07256,-1.33721 0.16023,-0.41751 -1.66301,-3.84344 -2.04541,-3.84344 -0.36581,0 -14.07072,7.11446 -14.47588,7.5147 -0.28691,0.28342 -0.19592,0.65153 0.51981,2.10296 0.59205,1.2006 1.01951,1.75942 1.34585,1.75942 0.26305,0 1.41706,-0.47201 2.56448,-1.04891 1.58083,-0.79486 2.14884,-0.9711 2.34476,-0.72763 0.14219,0.17674 0.70252,1.21428 1.24518,2.30571 2.67732,5.38478 4.70643,8.99583 5.05494,8.99583 0.20976,0 1.33125,-0.47757 2.49219,-1.06129 z M -47.703566,260.2993 c 2.50833,-4.05146 4.50772,-7.50388 4.4431,-7.67207 -0.0886,-0.23043 -4.74837,-3.18979 -5.98524,-3.80111 -0.10195,-0.0504 -1.80102,1.47701 -3.77571,3.39423 -1.97469,1.9172 -3.66883,3.40733 -3.76477,3.31137 -0.0959,-0.0959 0.44228,-2.12453 1.19602,-4.508 0.75375,-2.38347 1.37045,-4.57557 1.37045,-4.87132 0,-0.39886 -0.73209,-0.98703 -2.83492,-2.27756 -1.5592,-0.95692 -2.97441,-1.73982 -3.14491,-1.73982 -0.41348,0 -9.62795,14.78026 -9.47041,15.19076 0.0676,0.17634 0.90231,0.77647 1.8548,1.33366 2.11746,1.23864 1.72571,1.55088 5.27456,-4.20386 1.42993,-2.31873 2.64751,-4.07297 2.70572,-3.89835 0.0582,0.17463 -0.6191,2.63052 -1.50513,5.45751 -0.88603,2.82697 -1.61096,5.25722 -1.61096,5.40057 0,0.30438 2.95549,2.15096 3.44265,2.15096 0.18189,0 2.04939,-1.63711 4.14998,-3.63802 2.10059,-2.00094 4.06811,-3.81371 4.37225,-4.02839 0.53306,-0.37632 0.54073,-0.36748 0.21266,0.24553 -0.18719,0.34978 -1.51543,2.50579 -2.95165,4.79118 -1.43622,2.28537 -2.61131,4.29083 -2.61131,4.45654 0,0.40947 3.18562,2.44324 3.67835,2.34836 0.21664,-0.0417 2.44615,-3.39069 4.95447,-7.44217 z m 316.664316,0.53509 c 2.41951,-1.14903 4.40124,-2.94862 5.32397,-4.8346 0.61495,-1.25693 0.68057,-1.65888 0.58833,-3.60481 -0.0811,-1.71252 -0.26455,-2.52225 -0.84106,-3.7129 -1.61858,-3.34293 -4.05548,-5.48897 -6.87612,-6.05544 -3.75378,-0.75385 -8.94339,2.0066 -10.77788,5.73294 -0.77928,1.58297 -0.83042,1.85441 -0.71731,3.80825 0.0964,1.66601 0.29543,2.4565 0.95628,3.79889 2.70351,5.49164 7.25252,7.28551 12.34379,4.86767 z m -4.88333,-4.47802 c -1.07506,-0.73681 -2.81115,-3.57028 -3.04858,-4.97557 -0.21665,-1.28233 0.39213,-2.46766 1.73659,-3.38127 0.72914,-0.49551 1.15017,-0.59343 2.10235,-0.48908 1.01817,0.11155 1.36972,0.32523 2.427,1.47479 1.12998,1.22872 2.3355,3.6431 2.3355,4.67757 0,0.21751 -0.17142,0.80573 -0.38095,1.3072 -0.7806,1.86825 -3.43185,2.57892 -5.17191,1.38636 z m -333.152076,-9.80363 c 1.47626,-4.62799 2.6841,-8.63616 2.6841,-8.90699 0,-0.50456 -4.08081,-3.97314 -4.67772,-3.97597 -0.46523,-0.003 -16.22436,9.51383 -16.22436,9.79694 0,0.36785 3.77741,3.4222 4.23806,3.4268 0.22088,0.003 0.8539,-0.30334 1.40671,-0.679 0.55282,-0.37563 1.17023,-0.61965 1.37204,-0.54218 0.90385,0.34684 4.33786,3.25377 4.34851,3.68104 0.007,0.25937 -0.16683,0.89895 -0.38511,1.42137 -0.21828,0.52245 -0.39688,1.04968 -0.39688,1.1716 0,0.122 0.97194,1.0065 2.15985,1.96559 1.73859,1.40372 2.22138,1.67672 2.47527,1.39962 0.17348,-0.18934 1.52327,-4.13081 2.99953,-8.75882 z m -6.37842,-2.45147 c -0.67239,-0.52385 -1.16477,-1.0913 -1.09419,-1.26093 0.23846,-0.57311 4.19863,-3.08411 4.28191,-2.71502 0.0807,0.35756 -1.41927,4.36433 -1.76912,4.72583 -0.10783,0.11144 -0.7462,-0.22601 -1.4186,-0.74988 z m 359.093886,6.98336 c 1.02545,-0.76743 1.86447,-1.54009 1.86447,-1.71707 0,-0.17698 -0.9198,-1.5313 -2.04398,-3.00953 -1.944,-2.5563 -2.01917,-2.70589 -1.53692,-3.0585 0.81791,-0.59807 1.4731,-0.45178 4.85677,1.08442 1.76284,0.80039 3.30992,1.45523 3.43784,1.45523 0.37642,0 4.81129,-3.42836 4.81129,-3.71935 0,-0.44225 -5.23407,-2.85726 -6.90502,-3.18601 -0.85891,-0.16901 -1.56165,-0.33673 -1.56165,-0.37282 0,-0.0361 0.17862,-0.49297 0.39691,-1.01539 0.82251,-1.96858 0.29273,-4.21159 -1.36486,-5.77866 -1.44962,-1.37049 -3.38569,-1.6483 -5.23234,-0.75081 -1.51808,0.73774 -9.93971,7.07557 -9.9372,7.47834 0.004,0.63643 10.61141,14.2689 10.98968,14.12375 0.19828,-0.0761 1.19954,-0.76623 2.22501,-1.5336 z m -5.43247,-11.73597 -0.98216,-1.19861 0.63381,-0.67908 c 0.6995,-0.74946 2.36841,-1.68595 3.00455,-1.68595 0.59455,0 1.46574,0.96787 1.46574,1.62843 0,0.56044 -1.61674,2.31873 -2.63131,2.86168 -0.43069,0.23053 -0.6587,0.0888 -1.49063,-0.92647 z M -20.029246,192.62622 c 2.57342,1.01868 5.26788,1.73645 9.65652,2.57237 4.9821698,0.94897 13.7768398,1.19225 18.6519498,0.51597 12.2781102,-1.70325 22.3113202,-5.88677 28.1836102,-11.75164 2.66853,-2.66516 6.37424,-7.79228 8.10578,-11.21493 3.42567,-6.77135 5.09317,-14.53608 5.38369,-25.06924 0.223505,-8.10303 -0.62917,-14.48201 -2.84701,-21.29911 -2.49467,-7.66802 -6.3842,-13.61845 -12.3629,-18.91355 -9.67776,-6.5333 -13.479928,-8.085956 -23.47778,-9.562677 -3.4081102,-0.49845 -11.93692025,-0.42522 -15.8750002,0.1363 -15.3387898,2.187147 -27.0688898,9.164117 -34.4857298,20.511837 -3.68703,5.64114 -5.50647,11.95824 -6.92018,24.02679 -0.48786,4.16481 -0.52136,5.20091 -0.27864,8.61851 0.75946,10.6934 2.75052,17.96598 6.83188,24.95424 2.76671,4.73725 7.24439,9.51157 11.61563,12.38513 27.58737543,15.44914 -17.435668,-8.57593 7.81818,4.09 z m 18.3258298,-18.96506 c -0.72951,-0.25225 -1.87056,-0.77756 -2.53568,-1.16734 -1.29017,-0.7561 -3.15068,-2.63945 -3.14749,-3.18614 0.003,-0.46125 21.8311502,-34.99039 22.1200502,-34.99039 0.70715,0 1.00014,15.81083 0.4045,21.82813 -0.66683,6.73638 -2.65342,12.22895 -5.2758202,14.58672 -3.12787,2.81223 -8.1934,4.09509 -11.56556,2.92902 z m -8.4411698,-10.12658 c -0.0713,-0.20774 -0.33615,-1.92551 -0.58848,-3.81728 -1.32167,-9.90879 0.38286,-27.62166 3.1914298,-33.1641 0.80969,-1.59785 3.39558,-3.98174 5.40143,-4.9795 1.38263995,-0.68776 1.73395995,-0.74532 4.54128,-0.74414 2.73538,0.001 3.19446,0.0721 4.54507,0.70227 0.82629,0.38555 2.06615,1.21735 2.75524,1.84844 1.3824002,1.26605 3.2830302,4.00901 3.2830302,4.73803 0,0.43312 -21.8227602,34.5821 -22.6326202,35.41628 -0.31768,0.32722 -0.3840298,0.32722 -0.4963798,0 z m 113.616506,32.25816 c 14.50102,-1.9743 24.68557,-6.04604 31.27557,-12.50385 3.1704,-3.10679 5.46624,-7.17241 6.73677,-11.92993 0.64585,-2.41829 0.70842,-3.08953 0.72787,-7.80521 0.0238,-5.80129 -0.19484,-7.04756 -1.95781,-11.15507 -1.84198,-4.29155 -4.33835,-7.10414 -9.05333,-10.20016 -5.78101,-3.79603 -9.44642,-5.06134 -28.12595,-9.70914 -6.451411,-1.60523 -8.424651,-2.23021 -10.051601,-3.18367 -1.41253,-0.82781 -2.54529,-2.4669 -2.70359,-3.9121 -0.18971,-1.73198 0.62913,-2.73188 3.36878,-4.11374 2.59824,-1.31052 5.10154,-1.67879 7.716681,-1.13523 1.97075,0.40962 2.71875,1.03965 3.63601,3.06264 0.85691,1.88989 1.48198,2.40509 3.33894,2.752 1.30352,0.24353 21.8554,-0.0509 27.35384,-0.39192 2.58926,-0.16057 2.80908,-0.21917 3.53113,-0.94121 0.73821,-0.73821 0.76226,-0.83801 0.58298,-2.41858 -0.30133,-2.65683 -1.39917,-6.51397 -2.50251,-8.79236 -2.66552,-5.50429 -9.15971,-10.85127 -16.1675,-13.31148 -2.63522,-0.925127 -7.23437,-1.977777 -10.82712,-2.478077 -3.92221,-0.54618 -16.543761,-0.46348 -20.296421,0.13299 -19.64066,3.121787 -31.33398,12.654547 -33.54907,27.350227 -0.9636,6.39286 -0.0815,12.43236 2.44341,16.72931 1.3803,2.34904 4.52101,5.48788 7.29035,7.28604 6.00655,3.90011 12.03794,5.91587 31.80861,10.63078 3.665481,0.87415 5.072701,1.42382 7.005821,2.73659 2.20298,1.49601 2.7853,2.55073 2.77762,5.03091 -0.007,2.37354 -0.5888,3.68222 -2.27885,5.12883 -1.74829,1.49649 -3.63887,2.12247 -6.446261,2.13438 -4.3416,0.0184 -6.22747,-1.14103 -8.09995,-4.97994 -1.72887,-3.54445 0.51128,-3.19282 -18.59066,-2.91808 -10.37259,0.14919 -16.63468,0.33662 -16.78924,0.50252 -0.61527,0.66044 1.07399,8.74249 2.35963,11.28933 3.18426,6.30798 6.92878,10.11929 12.55869,12.78266 4.12258,1.9503 11.48355,3.80262 17.84591,4.49076 6.7977,0.73522 8.64872,0.71556 15.081251,-0.16022 z m -211.79898,-1.43973 c 0.72761,-0.0766 1.59081,-0.31345 1.91823,-0.52638 l 0.59532,-0.38716 v -8.39893 c 0,-4.61942 0.11746,-10.30191 0.26104,-12.62776 0.14357,-2.32585 0.38397,-6.25288 0.53423,-8.72673 0.34311,-5.64889 0.5124,-7.05211 0.82736,-6.85746 0.13749,0.085 2.4035,4.46023 5.035564,9.72278 4.88913,9.77532 13.55496,26.49646 14.04829,27.10685 0.21909,0.27108 4.16828,0.32399 19.74775,0.26458 l 19.47389,-0.0743 0.0823,-0.85113 c 0.0894,-0.9248 -1.26238,-3.56506 -4.59349,-8.97208 -0.97477,-1.58224 -5.87148,-9.8968 -10.88158,-18.47681 -5.01009,-8.58 -9.88077,-16.6712 -10.82373,-17.98042 -0.94296,-1.30922 -1.78061,-2.64392 -1.86144,-2.96598 -0.10915,-0.43489 1.09791,-2.71853 4.69095,-8.87479 7.3886,-12.65951 19.57033,-34.70134 19.31776,-34.9539 -0.30779,-0.3078 -28.95043,-0.808527 -33.31064,-0.58234 l -3.51324,0.18225 -0.63177,0.83239 c -1.08249,1.42622 -2.68705,4.62024 -4.73798,9.43135 -2.38089,5.5851 -5.07168,11.37767 -8.419044,18.12395 -1.37188,2.7649 -2.76255,5.65898 -3.09037,6.4313 -0.58055,1.36769 -0.62149,1.40209 -1.57437,1.32291 l -0.97832,-0.0813 v -17.72708 -17.72709 l -1.05833,-0.52916 c -1.01963,-0.509817 -1.6704,-0.531997 -17.79556,-0.606417 l -16.73722,-0.0772 -0.27365,0.719737 c -0.18246,0.47992 -0.32473,16.022 -0.42697,46.64392 l -0.15332,45.92418 0.56686,0.70989 c 0.31177,0.39044 0.83237,0.76427 1.1569,0.83073 0.78273,0.16031 30.90615,-0.0637 32.60463,-0.24241 z m 286.67606,0.0158 c 3.71078,-0.0812 9.96156,-0.04 13.89063,0.0915 3.92906,0.1315 7.39687,0.14549 7.70625,0.0311 0.64884,-0.2399 1.54511,-1.96002 1.92045,-3.68561 0.14243,-0.65485 0.50959,-3.51235 0.8159,-6.35 0.98885,-9.1608 2.71925,-22.37654 3.74147,-28.57501 1.02513,-6.21612 1.8714,-10.79964 2.08838,-11.31093 0.18103,-0.42654 0.47488,-0.59532 1.03646,-0.59532 0.43111,0 0.84732,0.10277 0.92495,0.22837 0.0776,0.12561 0.80624,4.85834 1.61909,10.51719 0.81288,5.65885 1.71154,11.7771 1.997,13.59611 0.86937,5.53965 1.50603,9.87134 2.50499,17.04321 0.52528,3.77121 1.09437,7.2706 1.26466,7.77643 l 0.30956,0.91969 17.99167,-0.0428 c 9.89542,-0.0235 18.67089,-0.11467 19.50108,-0.20248 l 1.50939,-0.15966 0.26591,-1.35623 c 3.25466,-16.60002 7.849,-38.01714 9.14506,-42.63124 0.49053,-1.74625 1.09021,-4.1275 1.33265,-5.29167 0.24244,-1.16417 2.32397,-10.33198 4.6256,-20.37292 5.12184,-22.34396 4.83701,-21.02809 4.72403,-21.82564 -0.0545,-0.38466 -0.36867,-0.78975 -0.75477,-0.97309 -1.24799,-0.59265 -9.27349,-0.99097 -20.19718,-1.00243 l -10.80447,-0.0113 -0.49799,0.61419 c -0.27393,0.33781 -0.55362,0.99265 -0.62156,1.45521 -2.92447,19.91172 -4.59058,32.27744 -5.56766,41.32227 -1.02946,9.53018 -0.91257,8.98039 -1.93058,9.0786 -0.68964,0.0665 -0.90736,-0.0373 -1.10961,-0.52917 -0.1384,-0.33656 -0.67228,-3.46943 -1.18639,-6.96193 -0.93094,-6.32402 -2.66076,-17.932 -5.1848,-34.79271 -0.72978,-4.87495 -1.38679,-9.13144 -1.46,-9.45886 l -0.13317,-0.59531 h -18.50969 -18.5097 l -0.37528,0.59531 c -0.2064,0.32742 -0.56928,1.38849 -0.80634,2.35792 -0.51827,2.11917 -1.63603,9.57821 -1.87693,12.5249 -0.14714,1.80001 -3.08406,21.89597 -4.56277,31.22083 l -0.46151,2.91042 -1.0881,0.0796 c -1.07474,0.0786 -1.08995,0.0673 -1.24174,-0.92604 -0.19643,-1.28546 -0.98661,-7.83927 -2.17882,-18.07127 -2.42033,-20.772 -4.06045,-30.2416 -5.35551,-30.92104 -0.55745,-0.292457 -13.3182,-0.467987 -23.9336,-0.329207 -6.50071,0.085 -7.92541,0.17034 -8.19131,0.490717 -0.36309,0.43749 -0.0622,2.05519 2.86707,15.41369 8.82865,40.26178 13.64499,62.8244 14.79767,69.32084 0.98528,5.55304 1.67709,8.02562 2.55934,9.14722 l 0.55785,0.70918 5.04775,-0.16253 c 2.77627,-0.0894 8.08384,-0.22893 11.79462,-0.31008 z m 130.96874,-0.40192 c 5.45703,-0.14607 17.17757,-0.26337 26.04566,-0.26067 14.26914,0.004 16.19737,-0.0433 16.76318,-0.41401 l 0.63934,-0.41891 -0.20875,-7.44987 c -0.11481,-4.09743 -0.19884,-9.02084 -0.18675,-10.9409 0.0159,-2.50087 -0.0769,-3.62652 -0.32684,-3.96875 -0.30673,-0.42018 -0.86934,-0.4881 -4.67008,-0.5638 -2.37678,-0.0473 -8.84576,0.0989 -14.37552,0.32507 -8.45095,0.34559 -15.60008,0.53207 -16.99951,0.44341 -0.25583,-0.0162 -0.33073,-1.6316 -0.33073,-7.13639 0,-6.24428 0.0512,-7.13511 0.41855,-7.27604 0.23016,-0.0883 2.81977,-0.16003 5.75466,-0.15933 5.42462,10e-4 19.4437,-0.40321 23.9582,-0.69127 l 2.48248,-0.15839 -0.12176,-9.11188 c -0.10864,-8.1347 -0.17013,-9.16034 -0.57317,-9.56383 -0.39542,-0.39589 -1.22973,-0.46195 -6.72634,-0.53264 -3.4512,-0.0444 -10.56113,0.0366 -15.79988,0.17989 -5.43373,0.14865 -9.6266,0.16128 -9.76152,0.0294 -0.53898,-0.52681 0.37944,-12.98162 1.00823,-13.67282 0.22002,-0.2419 2.40844,-0.25367 9.42223,-0.0507 5.02462,0.14543 12.55125,0.22769 16.72588,0.18279 6.86699,-0.0739 7.63524,-0.12662 8.06227,-0.55385 0.43477,-0.4349 0.47797,-1.31312 0.54706,-11.10957 0.0687,-9.74008 0.0372,-10.66496 -0.37278,-10.96478 -0.34141,-0.249657 -2.30743,-0.297577 -8.27712,-0.201727 -4.30609,0.0691 -19.25925,0.250797 -33.22925,0.403707 -21.16104,0.23162 -27.64409,0.34379 -28.97191,0.50129 -0.0728,0.009 -0.16899,20.80669 -0.21381,46.21792 l -0.0816,46.20222 0.61076,0.66386 0.61069,0.66385 9.12815,-0.17386 c 5.02047,-0.0956 13.59297,-0.29336 19.05,-0.43943 z"
       id="path75-3"
       inkscape:connector-curvature="0"
       sodipodi:nodetypes="cssssaascsscscssccsssssssssssscsscccssssssscssccccscscccccccscccccccscccccscccccccccccccccccscccccccccccccscccccccscccccccccccccsccccccscccsccccccccccsccccsccccsccsscccccccscccscccccccccccssccccccccccccsccscccccccccccccccccccsccscccscccccssccccccccccscccscccccccccccscsscccccccscssssccccccccccccsccccccsccccsccsccccccccccccccsccscsccccsccscccsccccsscscsccccsssccccsccccccccccccccccscccscsccccsscccccccccscccsscscccccccccssccsscsssccscscsccscccscsscscscccsssscccccsccccsccccscssscsccccccscscsccccscscscccccsscscscccccccccccccsccccccsccsccsccccccccccccsccccccccccccccccccccccsscccccccccccccccccccsccccccccccccccccsccccccc" />
  </g>
</svg>
